<?xml version="1.0" encoding="UTF-8"?>
<svg version="1.1" xmlns="http://www.w3.org/2000/svg" width="512" height="512" viewBox="0 0 512 512">
<path d="M0 0 C48.76458192 29.33420692 78.4699732 81.546045 92.44140625 135.44140625 C93.80007239 140.9290123 94.94573575 146.4465517 96 152 C96.16516113 152.8446582 96.33032227 153.68931641 96.50048828 154.55957031 C101.89445969 183.59888278 101.48399152 217.0476782 96 246 C95.80132324 247.10408203 95.60264648 248.20816406 95.39794922 249.34570312 C83.79681481 312.9911776 56.65368489 375.794333 4 416 C3.46890625 416.41282227 2.9378125 416.82564453 2.390625 417.25097656 C-37.77861221 448.36831571 -88.12376041 466.66420832 -139 468 C-140.25296875 468.03996094 -141.5059375 468.07992188 -142.796875 468.12109375 C-185.72905891 469.0398759 -229.82109284 459.25026428 -267.25341797 437.9597168 C-269.13237014 436.9051512 -271.06274506 435.94319305 -273 435 C-276.9049662 436.3016554 -278.15412053 438.67622461 -280.375 441.9375 C-281.2597811 443.20487103 -282.14523301 444.47177393 -283.03125 445.73828125 C-283.505625 446.42100098 -283.98 447.1037207 -284.46875 447.80712891 C-287.23662688 451.77094749 -290.0544777 455.69855498 -292.875 459.625 C-293.4220459 460.39448975 -293.9690918 461.16397949 -294.53271484 461.95678711 C-297.13917126 465.58775359 -299.68201193 468.97053263 -303 472 C-310.67499292 467.04158533 -317.97146388 461.84833216 -325 456 C-325.97324219 455.21238281 -326.94648438 454.42476563 -327.94921875 453.61328125 C-341.90923274 442.20313099 -354.28427496 429.49359186 -365 415 C-365.66902344 414.13761719 -366.33804688 413.27523438 -367.02734375 412.38671875 C-395.4635514 374.995141 -412.98204422 325.59305102 -413.203125 278.55078125 C-413.20882507 277.57626511 -413.21452515 276.60174896 -413.22039795 275.59770203 C-413.22978908 273.5413011 -413.2363583 271.48488552 -413.24023438 269.4284668 C-413.2498341 266.36543491 -413.2808705 263.3031064 -413.3125 260.24023438 C-413.61294343 204.13073022 -393.70305038 145.22059276 -359 101 C-358.58556641 100.47132324 -358.17113281 99.94264648 -357.74414062 99.39794922 C-351.18000633 91.1580242 -343.85338151 83.65834789 -336.4375 76.1875 C-335.57535889 75.31601318 -334.71321777 74.44452637 -333.82495117 73.54663086 C-327.86036175 67.61140418 -321.6123426 62.20088531 -315 57 C-314.36151123 56.49686279 -313.72302246 55.99372559 -313.06518555 55.4753418 C-275.36068204 26.26269571 -231.14360417 8.39750254 -184 2 C-183.23961426 1.8954248 -182.47922852 1.79084961 -181.69580078 1.68310547 C-129.9426695 -4.46567251 -79.9118159 8.80469093 -34 32 C-33.3709375 31.35933594 -32.741875 30.71867187 -32.09375 30.05859375 C-27.55405106 25.47103654 -22.97643941 21.04262638 -18.0703125 16.8515625 C-14.68122578 13.82056796 -11.53796255 10.54614728 -8.34375 7.3125 C-5.68150881 4.68575536 -2.93319623 2.31568123 0 0 Z M-305 96 C-305.87527344 96.74507812 -306.75054687 97.49015625 -307.65234375 98.2578125 C-313.10726639 103.03200436 -318.23641639 108.14076986 -323.375 113.25 C-324.41140625 114.27927612 -324.41140625 114.27927612 -325.46875 115.3293457 C-331.88965401 120.87036351 -331.88965401 120.87036351 -335 128 C-333.38492637 129.67282181 -333.38492637 129.67282181 -331.3125 131.375 C-330.58675781 131.99246094 -329.86101562 132.60992187 -329.11328125 133.24609375 C-326.76550888 135.19461463 -324.40435225 137.1215998 -322 139 C-322.54486416 144.54531104 -324.64588319 148.68042192 -327.125 153.5625 C-348.27288414 196.84739577 -350.54931929 247.14578568 -335.10498047 292.63623047 C-318.5420761 338.98954152 -284.48874581 378.41114677 -240.05029297 400.03222656 C-188.94036851 424.15698728 -130.32654677 429.14144586 -76.65966797 410.95849609 C-49.06926809 401.01541642 -23.84880346 385.95699591 -2.26953125 366.0859375 C-0.1723995 364.15845324 1.96376355 362.29238643 4.125 360.4375 C10.97057422 354.45967462 17.11432588 347.91566709 23 341 C21.40526038 336.53472907 17.93096666 334.14492157 14.375 331.25 C13.45847656 330.49009766 13.45847656 330.49009766 12.5234375 329.71484375 C11.02070947 328.4703971 9.51102533 327.23435872 8 326 C9.13393989 322.97417092 10.43229792 320.08259315 11.8828125 317.19921875 C21.47904017 298.01538343 27.81292889 278.21230934 31 257 C31.19207031 255.80890625 31.38414062 254.6178125 31.58203125 253.390625 C32.37208953 246.71865332 32.24447329 239.96017403 32.25 233.25 C32.25067474 232.5145697 32.25134949 231.7791394 32.25204468 231.02142334 C32.23473605 219.12376046 31.57991953 207.64264866 29 196 C28.83371094 195.23155762 28.66742188 194.46311523 28.49609375 193.67138672 C19.36788123 152.77192341 -3.5201525 113.64912687 -37 88 C-37.98226563 87.20207031 -38.96453125 86.40414062 -39.9765625 85.58203125 C-112.58901978 26.9967211 -226.3483628 31.85808723 -305 96 Z " fill="#3F3F3F" transform="translate(413,20)"/>
</svg>
